<?xml version="1.0" encoding="iso-8859-1"?>
<!-- Generator: Adobe Illustrator 19.0.0, SVG Export Plug-In . SVG Version: 6.00 Build 0)  -->
<svg version="1.1" id="Capa_1" xmlns="http://www.w3.org/2000/svg" xmlns:xlink="http://www.w3.org/1999/xlink" x="0px" y="0px"
	 viewBox="0 0 215.04 215.04" style="enable-background:new 0 0 215.04 215.04;" xml:space="preserve">
<path style="fill:#FFFFFF;" d="M131.413,17.067H83.627v48.278c-29.754,9.984-51.2,38.072-51.2,71.188
	c0,41.474,33.62,75.093,75.093,75.093s75.093-33.62,75.093-75.093c0-33.116-21.446-61.204-51.2-71.188v-31.16"/>
<path style="fill:#602F75;" d="M107.52,215.04c-43.288,0-78.507-35.219-78.507-78.507c0-32.949,20.471-62.218,51.2-73.603V17.067
	c0-1.884,1.529-3.413,3.413-3.413h47.787c1.884,0,3.413,1.529,3.413,3.413s-1.529,3.413-3.413,3.413H87.04v44.865
	c0,1.466-0.937,2.77-2.328,3.236c-29.232,9.81-48.872,37.117-48.872,67.953c0,39.525,32.155,71.68,71.68,71.68
	s71.68-32.155,71.68-71.68c0-30.836-19.64-58.143-48.872-67.951c-1.391-0.466-2.328-1.77-2.328-3.236V34.185
	c0-1.884,1.529-3.413,3.413-3.413c1.884,0,3.413,1.529,3.413,3.413V62.93c30.729,11.385,51.2,40.655,51.2,73.603
	C186.027,179.821,150.808,215.04,107.52,215.04z"/>
<path style="fill:#FFE600;" d="M138.865,83.76c-8.028,3.081-19.108,4.987-31.345,4.987S84.204,86.84,76.175,83.76
	C58.177,94.473,46.08,114.067,46.08,136.533c0,33.932,27.508,61.44,61.44,61.44s61.44-27.508,61.44-61.44
	C168.96,114.067,156.863,94.473,138.865,83.76z"/>
<g>
	<path style="fill:#602F75;" d="M107.52,191.147c-12.553,0-22.019-20.543-22.019-47.787s9.467-47.787,22.019-47.787
		s22.019,20.543,22.019,47.787S120.073,191.147,107.52,191.147z M107.52,102.4c-7.171,0-15.193,17.517-15.193,40.96
		s8.021,40.96,15.193,40.96s15.193-17.517,15.193-40.96S114.691,102.4,107.52,102.4z"/>
	<path style="fill:#602F75;" d="M137.182,175.915c-11.752,0-28.327-6.729-42.25-15.749c-17.428-11.288-29.817-25.158-31.563-35.335
		c-0.609-3.555,0.056-6.721,1.929-9.149c8.218-10.679,34.374-2.367,54.811,10.871c17.428,11.288,29.817,25.158,31.563,35.335
		c0.609,3.555-0.056,6.721-1.929,9.149C147.123,174.442,142.681,175.915,137.182,175.915z M77.87,117.627
		c-3.569,0-6.06,0.787-7.163,2.219c-0.696,0.906-0.896,2.161-0.609,3.831c1.142,6.649,10.561,19.11,28.546,30.759
		c22.852,14.8,42.01,17.212,45.691,12.438c0.696-0.906,0.896-2.161,0.609-3.831c-1.142-6.649-10.561-19.11-28.546-30.759
		C100.398,121.921,86.204,117.627,77.87,117.627z"/>
	<path style="fill:#602F75;" d="M77.858,175.915c-5.501,0-9.941-1.473-12.561-4.876c-1.872-2.43-2.538-5.594-1.929-9.149
		c1.746-10.177,14.135-24.047,31.563-35.335c20.437-13.239,46.594-21.545,54.811-10.871c1.872,2.43,2.538,5.594,1.929,9.149
		c-1.746,10.177-14.135,24.047-31.563,35.335C106.187,169.185,89.61,175.915,77.858,175.915z M137.17,117.627
		c-8.334,0-22.526,4.292-38.528,14.657c-17.985,11.65-27.404,24.11-28.546,30.759c-0.287,1.671-0.087,2.925,0.609,3.831
		c3.681,4.777,22.842,2.364,45.691-12.438c17.985-11.65,27.404-24.11,28.546-30.759c0.287-1.671,0.087-2.925-0.609-3.831
		C143.23,118.414,140.737,117.627,137.17,117.627z"/>
</g>
<path style="fill:#00E7FF;" d="M134.827,17.067H80.213c-3.77,0-6.827-3.057-6.827-6.827l0,0c0-3.77,3.057-6.827,6.827-6.827h54.613
	c3.77,0,6.827,3.057,6.827,6.827l0,0C141.653,14.01,138.597,17.067,134.827,17.067z"/>
<g>
	<path style="fill:#602F75;" d="M134.827,20.48H80.213c-5.647,0-10.24-4.593-10.24-10.24S74.566,0,80.213,0h54.613
		c5.647,0,10.24,4.593,10.24,10.24S140.474,20.48,134.827,20.48z M80.213,6.827c-1.882,0-3.413,1.531-3.413,3.413
		s1.531,3.413,3.413,3.413h54.613c1.882,0,3.413-1.531,3.413-3.413s-1.531-3.413-3.413-3.413H80.213z"/>
	<path style="fill:#602F75;" d="M100.693,30.72H83.627c-1.884,0-3.413-1.529-3.413-3.413s1.529-3.413,3.413-3.413h17.067
		c1.884,0,3.413,1.529,3.413,3.413S102.577,30.72,100.693,30.72z"/>
	<path style="fill:#602F75;" d="M93.867,44.373h-10.24c-1.884,0-3.413-1.529-3.413-3.413c0-1.884,1.529-3.413,3.413-3.413h10.24
		c1.884,0,3.413,1.529,3.413,3.413C97.28,42.844,95.751,44.373,93.867,44.373z"/>
	<path style="fill:#602F75;" d="M100.693,58.027H83.627c-1.884,0-3.413-1.529-3.413-3.413s1.529-3.413,3.413-3.413h17.067
		c1.884,0,3.413,1.529,3.413,3.413S102.577,58.027,100.693,58.027z"/>
</g>
<g>
	<path style="fill:#EA3457;" d="M182.613,30.72h-30.72c-1.884,0-3.413-1.529-3.413-3.413s1.529-3.413,3.413-3.413h30.72
		c1.884,0,3.413,1.529,3.413,3.413S184.497,30.72,182.613,30.72z"/>
	<path style="fill:#EA3457;" d="M182.613,58.027h-30.72c-1.884,0-3.413-1.529-3.413-3.413s1.529-3.413,3.413-3.413h30.72
		c1.884,0,3.413,1.529,3.413,3.413S184.497,58.027,182.613,58.027z"/>
	<path style="fill:#EA3457;" d="M182.613,44.373h-30.72c-1.884,0-3.413-1.529-3.413-3.413c0-1.884,1.529-3.413,3.413-3.413h30.72
		c1.884,0,3.413,1.529,3.413,3.413C186.027,42.844,184.497,44.373,182.613,44.373z"/>
</g>
<g>
</g>
<g>
</g>
<g>
</g>
<g>
</g>
<g>
</g>
<g>
</g>
<g>
</g>
<g>
</g>
<g>
</g>
<g>
</g>
<g>
</g>
<g>
</g>
<g>
</g>
<g>
</g>
<g>
</g>
</svg>
